<svg xmlns="http://www.w3.org/2000/svg" viewBox="0 0 16 16">
  <path d="M13.3283 4.79271C13.1877 4.79604 13.054 4.85482 12.9565 4.95625L8.00021 9.91251L3.04396 4.95625C2.99426 4.90516 2.93482 4.86455 2.86916 4.83682C2.8035 4.80909 2.73294 4.7948 2.66166 4.7948C2.55557 4.79482 2.45189 4.82649 2.36388 4.88575C2.27588 4.94501 2.20755 5.02917 2.16762 5.12747C2.1277 5.22577 2.118 5.33375 2.13976 5.43759C2.16152 5.54143 2.21376 5.63642 2.28979 5.71042L7.62312 11.0438C7.72315 11.1437 7.85878 11.1999 8.00021 11.1999C8.14163 11.1999 8.27727 11.1437 8.37729 11.0438L13.7106 5.71042C13.7881 5.63594 13.8412 5.5398 13.8631 5.4346C13.885 5.3294 13.8746 5.22004 13.8333 5.12084C13.792 5.02165 13.7216 4.93725 13.6315 4.8787C13.5414 4.82015 13.4358 4.79018 13.3283 4.79271Z"/>
</svg>
