<svg width="29px" height="28px" viewBox="0 0 29 28" version="1.1" xmlns="http://www.w3.org/2000/svg" xmlns:xlink="http://www.w3.org/1999/xlink">
  <defs>
    <linearGradient x1="89.2348346%" y1="0%" x2="0%" y2="100%" id="linearGradient-1">
      <stop stop-color="#2CA0FF" offset="0%"></stop>
      <stop stop-color="#193B8D" offset="100%"></stop>
    </linearGradient>
  </defs>
  <g id="Mobile" stroke="none" stroke-width="1" fill="none" fill-rule="evenodd">
    <g id="Host-service-for-review-locations-Icons" transform="translate(-334.000000, -64.000000)">
      <g id="Group-4" transform="translate(334.000000, 64.000000)">
        <g id="Group-2">
          <circle id="Oval" fill="url(#linearGradient-1)" cx="14" cy="14" r="14"></circle>
          <path d="M14.9002417,20.0545391 L14.9002417,14.0998664 L16.899095,14.0998664 L17.1985879,11.7789013 L14.9002417,11.7789013 L14.9002417,10.2973539 C14.9002417,9.62548453 15.0870583,9.16765834 16.050462,9.16765834 L17.27943,9.16682059 L17.27943,7.09131392 C17.0670623,7.06283068 16.3373887,7 15.4887557,7 C13.7169306,7 12.5038797,8.08152538 12.5038797,10.0673936 L12.5038797,11.7789013 L10.5,11.7789013 L10.5,14.0998664 L12.5038797,14.0998664 L12.5038797,20.0545391 L14.9002417,20.0545391 Z" id="Facebook" fill="#FFFFFF"></path>
        </g>
        <g id="Group-3" transform="translate(20.000000, 14.000000)" fill-rule="nonzero">
          <path d="M0.607040183,2.19093926 C1.38614223,0.8811017 2.83789345,0 4.5,0 C6.98530523,0 9,1.96938117 9,4.39878805 C9,5.0080728 8.87303276,5.58809107 8.64426994,6.11582713 C8.41498965,6.64356318 8.08339631,7.11847505 7.67418107,7.51642691 C7.33316221,7.87080423 7.02729498,8.24519839 6.75236562,8.62779438 C4.95120499,11.1361846 4.5,14 4.5,14 C4.5,14 4.00998406,10.8905268 2.01258789,8.31341458 C1.80064315,8.04058595 1.57188034,7.7733577 1.32530145,7.51642691 L1.32581893,7.51642691 C1.05088957,7.24974063 0.811666283,6.94818749 0.614913261,6.61892153 C0.224031574,5.96707392 0,5.20856625 0,4.39875192 C0,3.59410438 0.220889736,2.83967957 0.607040183,2.19093926 Z" id="Path" fill="#F14336"></path>
          <path d="M4.50031789,2 C5.83849947,2 6.92307692,3.04502016 6.92307692,4.33363945 C6.92307692,5.62225875 5.83849947,6.66666667 4.50031789,6.66666667 C3.16213631,6.66666667 2.07692308,5.62225875 2.07692308,4.33363945 C2.07692308,3.04502016 3.16217371,2 4.50031789,2 Z" id="Path" fill="#7E2D25"></path>
        </g>
      </g>
    </g>
  </g>
</svg>
