<svg width="125px" height="125px" viewBox="0 0 125 125" version="1.1" xmlns="http://www.w3.org/2000/svg" xmlns:xlink="http://www.w3.org/1999/xlink">
  <g stroke="none" stroke-width="1" fill="none" fill-rule="evenodd">
    <g transform="translate(-167.000000, -6.000000)" fill-rule="nonzero">
      <g transform="translate(167.000000, 6.000000)">
        <path d="M111,61.1529794 L111,115 L93.4157824,111.867702 L85.6635286,102.918351 L53,67.9724871 L80.7318654,49.0097284 C94.6232481,66.655591 95.0612983,62.3538461 95.0612983,62.3538461 C95.0612983,62.3538461 101.923056,38.3384255 110.726219,46.8100526 L111,61.1529794 Z" fill="#CCCCCC"></path>
        <path d="M48.548338,54 L102,124.951093 C101.68879,124.982551 101.374244,125 101.056361,125 L11,125 L48.548338,54 Z" fill="#518EF8"></path>
        <path d="M80,46.5650384 L0,117 L0,24.2224636 C0,18.5754254 4.37718249,14 9.77204672,14 L74.894566,14 C72.3894479,18.5041852 74.894566,21.3951818 74.894566,26.9817662 C74.894566,32.6042215 77.4644282,42.0395313 80,46.5650384 Z" fill="#28B446"></path>
        <path d="M112,111.264921 L112,114.799494 C112,120.122984 108.073052,124.5002 103.048,125 L56,77.2980948 L67.7382513,66 L93.9473309,92.852797 L95.3563993,94.2915782 L112,111.264921 Z" fill="#F2F2F2"></path>
        <path d="M78.6459564,55.7615376 L66.4937769,68.1477934 L55.3987014,79.4568339 L10.7173116,125 L9.95128348,125 C4.45746782,125 0,120.516761 0,114.991182 L72.4364499,42 C73.7362801,44.2381811 79.651292,44.2152445 81.4675868,46.028041 L84.8056818,50.3437788 C86.4346819,52.0907536 77.2457636,53.9069886 78.6459564,55.7615376 Z" fill="#FFD837"></path>
        <path d="M24,58 C15.1774434,58 8,50.8225566 8,42 C8,33.1774434 15.1774434,26 24,26 C28.2708388,26 32.2876546,27.6650703 35.3115385,30.6887079 L31.6017185,34.3977887 C29.5695345,32.3651119 26.8696469,31.2457845 24,31.2457845 C18.0700042,31.2457845 13.2460309,36.0700042 13.2460309,41.9997536 C13.2460309,47.9295031 18.0702505,52.7537227 24,52.7537227 C29.0252699,52.7537227 33.2569334,49.2890559 34.4304655,44.6225227 L24,44.6225227 L24,39.3767382 L40,39.3767382 L40,41.9997536 C40,50.8225566 32.8225566,58 24,58 Z" fill="#FFFFFF"></path>
        <path d="M70.9120367,14.5540965 C75.9329166,5.85303272 85.2886467,0 96,0 C112.016411,0 125,13.0823178 125,29.2205206 C125,33.2679122 124.181767,37.1208907 122.707517,40.6265659 C121.229933,44.1322411 119.092998,47.2870128 116.455834,49.9305502 C114.258156,52.2846281 112.287012,54.771675 110.515245,57.3132055 C98.9077655,73.9760836 96,93 96,93 C96,93 92.8421195,72.3442141 79.9700108,55.2248254 C78.6041448,53.4124638 77.1298955,51.6373047 75.5408316,49.9305502 L75.5441664,49.9305502 C73.7723995,48.1589913 72.2307383,46.1558169 70.9627743,43.9685501 C68.443759,39.6384196 67,34.5997615 67,29.2202806 C67,23.8751219 68.4235116,18.8635857 70.9120367,14.5540965 Z" fill="#F14336"></path>
        <path d="M96.0020991,13 C104.838346,13 112,20.1658525 112,29.0020991 C112,37.8383457 104.838346,45 96.0020991,45 C87.1658525,45 80,37.8383457 80,29.0020991 C80,20.1658525 87.1660994,13 96.0020991,13 Z" fill="#7E2D25"></path>
      </g>
    </g>
  </g>
</svg>
