<svg xmlns="http://www.w3.org/2000/svg" width="18" height="16" viewBox="0 0 18 16">
  <g fill-rule="evenodd">
    <rect width="5" height="9" y="7" rx="1"/>
    <path d="M6 7.026l2.477-3.725V.456C8.839.152 9.144 0 9.393 0c.373 0 1.225.008 1.647.641.422.634.972 1.413.972 1.943 0 .353-.148 1.337-.445 2.952h5.33c.502.142.819.338.949.589.194.376.216.842 0 1.267-.145.283-.526.498-1.145.645.417.186.684.392.804.616.18.335.038 1.033-.171 1.273-.14.16-.488.35-1.044.57.521.272.782.513.782.722 0 .315.02.592-.175.933-.13.227-.496.442-1.098.646.602.214.902.426.902.636 0 .316.08.877-.411 1.239-.328.241-.624.35-.89.325H6v-7.97z"/>
  </g>
</svg>
