<svg width="32" height="30" viewBox="0 0 32 30" fill="none" xmlns="http://www.w3.org/2000/svg">
  <path fill-rule="evenodd" clip-rule="evenodd" d="M14.6418 28.7207C22.176 28.7207 28.2837 22.613 28.2837 15.0788C28.2837 7.54467 22.176 1.43701 14.6418 1.43701C7.10766 1.43701 1 7.54467 1 15.0788C1 22.613 7.10766 28.7207 14.6418 28.7207Z" stroke="#FF2E63"/>
  <path fill-rule="evenodd" clip-rule="evenodd" d="M14.6422 14.136C16.5955 14.136 18.179 12.5526 18.179 10.5993C18.179 8.64597 16.5955 7.0625 14.6422 7.0625C12.6889 7.0625 11.1055 8.64597 11.1055 10.5993C11.1055 12.5526 12.6889 14.136 14.6422 14.136Z" stroke="#FF2E63"/>
  <path d="M9.10666 21.21L8.60868 21.2549L8.64972 21.71H9.10666V21.21ZM20.1769 21.21V21.71H20.6338L20.6749 21.2549L20.1769 21.21ZM9.58398 19.694C9.58398 16.9007 11.8484 14.6362 14.6418 14.6362V13.6362C11.2961 13.6362 8.58398 16.3484 8.58398 19.694H9.58398ZM9.58398 20.7045V19.694H8.58398V20.7045H9.58398ZM9.60464 21.1651C9.59098 21.0135 9.58398 20.8599 9.58398 20.7045H8.58398C8.58398 20.8899 8.59233 21.0735 8.60868 21.2549L9.60464 21.1651ZM9.10666 21.71H20.1769V20.71H9.10666V21.71ZM19.6996 20.7045C19.6996 20.8599 19.6926 21.0135 19.6789 21.1651L20.6749 21.2549C20.6912 21.0735 20.6996 20.8899 20.6996 20.7045H19.6996ZM19.6996 19.694V20.7045H20.6996V19.694H19.6996ZM14.6418 14.6362C17.4351 14.6362 19.6996 16.9007 19.6996 19.694H20.6996C20.6996 16.3484 17.9874 13.6362 14.6418 13.6362V14.6362Z" fill="#FF2E63"/>
  <path fill-rule="evenodd" clip-rule="evenodd" d="M25.757 12.1156C28.8265 12.1156 31.3148 9.62726 31.3148 6.55778C31.3148 3.4883 28.8265 1 25.757 1C22.6875 1 20.1992 3.4883 20.1992 6.55778C20.1992 9.62726 22.6875 12.1156 25.757 12.1156Z" fill="white"/>
  <path d="M25.2523 3.47998V9.66368" stroke="#FF2E63"/>
  <path d="M22.2207 6.5572H28.2118" stroke="#FF2E63"/>
</svg>
