<svg width="38px" height="38px" viewBox="0 0 38 38" version="1.1" xmlns="http://www.w3.org/2000/svg" xmlns:xlink="http://www.w3.org/1999/xlink">
  <g stroke="none" stroke-width="1" fill="none" fill-rule="evenodd">
    <g>
      <circle id="Oval" stroke="#1094FF" stroke-width="2" cx="19" cy="19" r="18"></circle>
      <path d="M9.23699995,23.154 C9.97033328,23.154 10.5936666,23.0421667 11.1069999,22.8185 C11.6203333,22.5948333 12.0053333,22.296 12.2619999,21.922 C12.5186666,21.548 12.6469999,21.13 12.6469999,20.668 C12.6469999,20.1326667 12.5058333,19.7091667 12.2234999,19.3975 C11.9411666,19.0858333 11.6074999,18.8585 11.2224999,18.7155 C10.8374999,18.5725 10.3516666,18.4386667 9.76499995,18.314 C9.24433328,18.204 8.86666662,18.0976667 8.63199995,17.995 C8.39733328,17.8923333 8.27999995,17.7383333 8.27999995,17.533 C8.27999995,17.3276667 8.37899995,17.1608333 8.57699995,17.0325 C8.77499995,16.9041667 9.09033328,16.84 9.52299995,16.84 C10.2123333,16.84 10.9236666,17.038 11.6569999,17.434 L11.6569999,17.434 L12.3279999,15.817 C11.954,15.597 11.5213333,15.4301667 11.0299999,15.3165 C10.5386666,15.2028333 10.0399999,15.146 9.53399995,15.146 C8.79333328,15.146 8.16816662,15.256 7.65849995,15.476 C7.14883328,15.696 6.76566662,15.9948333 6.50899995,16.3725 C6.25233328,16.7501667 6.12399995,17.1736667 6.12399995,17.643 C6.12399995,18.1783333 6.26333328,18.6036667 6.54199995,18.919 C6.82066662,19.2343333 7.15433328,19.4635 7.54299995,19.6065 C7.93166662,19.7495 8.41566662,19.8833333 8.99499995,20.008 C9.52299995,20.1253333 9.90616662,20.2371667 10.1444999,20.3435 C10.3828333,20.4498333 10.5019999,20.613 10.5019999,20.833 C10.5019999,21.251 10.0839999,21.46 9.24799995,21.46 C8.80799995,21.46 8.36066662,21.3903333 7.90599995,21.251 C7.45133328,21.1116667 7.05166662,20.9283333 6.70699995,20.701 L6.70699995,20.701 L5.99199995,22.307 C6.35866662,22.5636667 6.83533328,22.769 7.42199995,22.923 C8.00866662,23.077 8.61366662,23.154 9.23699995,23.154 Z M16.5776666,23 L16.5776666,19.029 L18.5466666,22.241 L19.5146666,22.241 L21.4946666,18.919 L21.5166666,23 L23.5186667,23 L23.4966667,15.3 L21.7036666,15.3 L19.0636666,19.744 L16.3576666,15.3 L14.5646666,15.3 L14.5646666,23 L16.5776666,23 Z M28.6813333,23.154 C29.4146667,23.154 30.038,23.0421667 30.5513334,22.8185 C31.0646667,22.5948333 31.4496667,22.296 31.7063333,21.922 C31.963,21.548 32.0913333,21.13 32.0913333,20.668 C32.0913333,20.1326667 31.9501667,19.7091667 31.6678333,19.3975 C31.3855,19.0858333 31.0518333,18.8585 30.6668333,18.7155 C30.2818333,18.5725 29.796,18.4386667 29.2093333,18.314 C28.6886667,18.204 28.311,18.0976667 28.0763333,17.995 C27.8416667,17.8923333 27.7243333,17.7383333 27.7243333,17.533 C27.7243333,17.3276667 27.8233333,17.1608333 28.0213333,17.0325 C28.2193333,16.9041667 28.5346667,16.84 28.9673333,16.84 C29.6566667,16.84 30.368,17.038 31.1013333,17.434 L31.1013333,17.434 L31.7723333,15.817 C31.3983333,15.597 30.9656667,15.4301667 30.4743333,15.3165 C29.983,15.2028333 29.4843333,15.146 28.9783333,15.146 C28.2376667,15.146 27.6125,15.256 27.1028333,15.476 C26.5931667,15.696 26.21,15.9948333 25.9533334,16.3725 C25.6966667,16.7501667 25.5683333,17.1736667 25.5683333,17.643 C25.5683333,18.1783333 25.7076667,18.6036667 25.9863333,18.919 C26.265,19.2343333 26.5986667,19.4635 26.9873334,19.6065 C27.376,19.7495 27.86,19.8833333 28.4393333,20.008 C28.9673333,20.1253333 29.3505,20.2371667 29.5888333,20.3435 C29.8271667,20.4498333 29.9463333,20.613 29.9463333,20.833 C29.9463333,21.251 29.5283333,21.46 28.6923333,21.46 C28.2523333,21.46 27.805,21.3903333 27.3503333,21.251 C26.8956667,21.1116667 26.496,20.9283333 26.1513334,20.701 L26.1513334,20.701 L25.4363333,22.307 C25.803,22.5636667 26.2796667,22.769 26.8663333,22.923 C27.453,23.077 28.058,23.154 28.6813333,23.154 Z" fill="#1094FF" fill-rule="nonzero"></path>
    </g>
  </g>
</svg>
