<svg width="38px" height="38px" viewBox="0 0 38 38" version="1.1" xmlns="http://www.w3.org/2000/svg" xmlns:xlink="http://www.w3.org/1999/xlink">
  <defs>
    <path d="M19,0 C8.50657143,0 0,7.87746032 0,17.5927937 L0,17.5927937 C0,23.0949524 2.72695238,28.0072063 6.99803175,31.2311746 L6.99803175,31.2311746 L6.99803175,38 L13.376,34.4014603 C15.2042222,34.9238095 17.0975873,35.1873968 19,35.1861905 L19,35.1861905 C29.4940317,35.1861905 38,27.3087302 38,17.5927937 L38,17.5927937 C38,7.87746032 29.4940317,0 19,0 Z" id="path-1"></path>
    <linearGradient x1="50%" y1="6.80991889%" x2="50%" y2="95.5153875%" id="linearGradient-3">
      <stop stop-color="#00C6FF" offset="0%"></stop>
      <stop stop-color="#0067FF" offset="100%"></stop>
    </linearGradient>
  </defs>
  <g stroke="none" stroke-width="1" fill="none" fill-rule="evenodd">
    <g>
      <g>
        <mask id="mask-2" fill="white">
          <use xlink:href="#path-1"></use>
        </mask>
        <g></g>
        <path d="M19,0 C8.50657143,0 0,7.87746032 0,17.5927937 L0,17.5927937 C0,23.0949524 2.72695238,28.0072063 6.99803175,31.2311746 L6.99803175,31.2311746 L6.99803175,38 L13.376,34.4014603 C15.2042222,34.9238095 17.0975873,35.1873968 19,35.1861905 L19,35.1861905 C29.4940317,35.1861905 38,27.3087302 38,17.5927937 L38,17.5927937 C38,7.87746032 29.4940317,0 19,0 Z" id="Fill-1" fill="url(#linearGradient-3)" mask="url(#mask-2)"></path>
      </g>
      <path d="M7.30769231,23.3846154 L17.7221831,11.8268898 L22.6542879,17.1860002 L32.1538462,11.6923077 L21.7393554,23.2500333 C20.0951202,21.4638809 18.450885,19.6770752 16.8066498,17.8909228 C13.6407312,19.7221537 10.4742117,21.5533845 7.30769231,23.3846154" id="Fill-4" fill="#FFFFFF"></path>
    </g>
  </g>
</svg>
