<svg width="38px" height="38px" viewBox="0 0 38 38" version="1.1" xmlns="http://www.w3.org/2000/svg" xmlns:xlink="http://www.w3.org/1999/xlink">
  <g stroke="none" stroke-width="1" fill="none" fill-rule="evenodd">
    <g>
      <circle fill="#08D9D6" cx="19" cy="19" r="19"></circle>
      <g transform="translate(9.000000, 8.000000)">
        <path d="M22,7.80485427 C22,3.63509348 18.7429271,0.229649269 14.6435134,0.0115951945 L14.6435134,0 L0,0 L0,21.9914137 C8.69948375,22.30078 10.1943942,14.1474257 10.1943942,14.1474257 C10.1943942,14.1474257 12.4832001,23.1196906 21.9233215,21.8724019 C20.8482179,19.1884365 19.8427346,16.8334847 18.7252815,14.1693277 C20.706892,12.754875 22,10.43181 22,7.80485427" id="Fill-2" fill="#FFFFFF"></path>
        <path d="M11.6512206,12.2769677 L11.6512206,8.12886707 C11.6512206,7.8009118 11.6150477,7.47407147 11.5433507,7.1543987 L11.4301279,6.64980311 C11.4285058,6.64263556 11.4265592,6.63546801 11.4242883,6.62845974 C11.1787018,5.88414939 10.844224,5.17344689 10.4286409,4.51228013 L10.1618049,4.08812039 C10.1257942,4.03077998 10.0680473,4.0041804 10.0083538,4.00083555 L10.0083538,4.00019843 C10.0025143,3.99956132 9.9968369,4.00067627 9.99099732,4.00051699 C9.98515775,4.00067627 9.97948039,3.99956132 9.97364081,4.00019843 L9.97364081,4.00083555 C9.91394739,4.0041804 9.85620049,4.03077998 9.82018979,4.08812039 L9.5533537,4.51228013 C9.13777069,5.17344689 8.80329287,5.88414939 8.55770635,6.62845974 C8.5554354,6.63546801 8.55348888,6.64263556 8.55186677,6.64980311 L8.43864392,7.1543987 C8.36694693,7.47407147 8.33077401,7.8009118 8.33077401,8.12886707 L8.33077401,12.2906657 L7,13.3059095 L7,15 C7,15 8.42290951,14.2593531 10.0083538,14.2593531 C11.5937982,14.2593531 13,15 13,15 L13,13.3059095 L11.6512206,12.2769677 Z" id="Fill-3" fill="#08D9D6"></path>
      </g>
    </g>
  </g>
</svg>
