<svg width="38px" height="38px" viewBox="0 0 38 38" version="1.1" xmlns="http://www.w3.org/2000/svg" xmlns:xlink="http://www.w3.org/1999/xlink">
  <g stroke="none" stroke-width="1" fill="none" fill-rule="evenodd">
    <g>
      <path d="M19,0 C29.4935161,0 38,8.50648387 38,19 C38,29.4935161 29.4935161,38 19,38 C8.50648387,38 0,29.4935161 0,19 C0,8.50648387 8.50648387,0 19,0" id="Fill-1" fill="#30BF39"></path>
      <path d="M19.1995356,8 C13.2345378,8 8.39907125,12.7982835 8.39907125,18.7174126 C8.39587868,20.6682795 8.93223045,22.5817637 9.94874474,24.251944 L8,30 L13.9796836,28.0998214 C15.5772457,28.9773631 17.3733856,29.436726 19.1995356,29.4348252 C25.1638949,29.4348252 30,24.6359081 30,18.7174126 C30,12.7982835 25.1638949,8 19.1995356,8 L19.1995356,8 Z M19.1995356,27.63856 C17.4410681,27.6398249 15.7215498,27.1266056 14.2555217,26.1635274 L10.8017994,27.2609297 L11.92303,23.9484477 C10.8081846,22.4290651 10.2079814,20.5966822 10.2092564,18.7174126 C10.2092564,13.7968435 14.2408359,9.7962675 19.1995356,9.7962675 C24.1582354,9.7962675 28.1891743,13.7968435 28.1891743,18.7174126 C28.1891743,23.6379817 24.1544043,27.63856 19.1995356,27.63856 L19.1995356,27.63856 Z M24.2623132,21.1536202 C23.9903062,21.0059904 22.6602815,20.2963539 22.4144536,20.1924428 C22.1686257,20.0891654 21.9821797,20.0403779 21.7887099,20.3071252 C21.5952402,20.5732389 21.0435641,21.1688267 20.8756349,21.3456022 C20.7083442,21.5230113 20.5480772,21.5382178 20.2760702,21.3899545 C20.0040633,21.2423248 19.1286606,20.9204539 18.1115078,19.9485053 C17.3178349,19.1938828 16.8,18.2776914 16.6512262,17.9963712 C16.501814,17.715051 16.6512262,17.5750245 16.7923378,17.4419676 C16.9340879,17.3089108 17.0796691,17.1315016 17.2246118,16.9762686 C17.370193,16.8210357 17.4187201,16.7101549 17.5151357,16.5289442 C17.6121898,16.3477334 17.575156,16.1886988 17.5113046,16.0480387 C17.4480917,15.9073786 16.9494123,14.5438627 16.7406182,13.9850239 C16.5318241,13.4268187 16.2974895,13.5123553 16.1372225,13.504752 C15.9769554,13.4971488 15.7943404,13.4673694 15.6078944,13.4641093 C15.3250327,13.4603997 15.0536642,13.5744485 14.8589174,13.778469 C14.5945726,14.0407811 13.857089,14.6769195 13.8085619,16.0226945 C13.7600348,17.367836 14.6916268,18.7174126 14.8257147,18.902425 C14.9598026,19.0874374 16.617385,22.0077184 19.3783195,23.2058637 C22.1392541,24.4033754 22.1539399,24.0409539 22.6602815,24.0111745 C23.1672616,23.9813951 24.3146713,23.408617 24.5713539,22.7807154 C24.8286751,22.1515466 24.8478305,21.6009446 24.780148,21.4862623 C24.713104,21.37158 24.5343201,21.2942803 24.2623132,21.1466505 L24.2623132,21.1536202 Z" id="Fill-3" fill="#FFFFFF"></path>
    </g>
  </g>
</svg>
