<svg width="36px" height="38px" viewBox="0 0 36 38" version="1.1" xmlns="http://www.w3.org/2000/svg" xmlns:xlink="http://www.w3.org/1999/xlink">
  <defs>
    <polygon id="path-1" points="0 0 36 0 36 38 0 38"></polygon>
  </defs>
  <g stroke="none" stroke-width="1" fill="none" fill-rule="evenodd">
    <g>
      <mask id="mask-2" fill="white">
        <use xlink:href="#path-1"></use>
      </mask>
      <g id="Clip-2"></g>
      <path d="M26.3232044,17.327997 C25.9660042,17.3323095 25.8049713,17.0230814 25.7817313,16.6905475 C25.7358003,16.0334379 25.7041427,15.3731071 25.6163066,14.7214923 C25.154801,11.2803825 22.504712,8.43347577 19.1971331,7.82259874 C18.6990291,7.73070192 18.1895796,7.70663821 17.6854369,7.65150012 C17.367031,7.61701512 16.9494434,7.59711993 16.8791745,7.18690009 C16.8193361,6.84299754 17.0996798,6.56939133 17.4164388,6.55139092 C17.502445,6.54665397 17.5888172,6.55082248 17.6753723,6.55082248 C22.1361663,6.68061491 17.5888172,6.55082248 17.6753723,6.55082248 C22.1361663,6.68061491 25.8002135,9.7459898 26.5852488,14.3125988 C26.7188329,15.0907849 26.7665938,15.886403 26.8262492,16.6757683 C26.8511361,17.0081126 26.6699741,17.323783 26.3232044,17.327997 M20.604341,10.7170645 C20.0734814,10.4478163 19.4996188,10.2810756 18.9178875,10.1808418 C18.6638947,10.1376408 18.406791,10.1111139 18.1515173,10.0739762 C17.841712,10.0296383 17.6766533,9.82576003 17.6909267,9.50952127 C17.704651,9.21374613 17.9132618,9.00058339 18.225446,9.01896276 C19.2489198,9.0788378 20.2381741,9.30810617 21.147827,9.80738067 C22.9989732,10.8222248 24.0559345,12.4244506 24.3648249,14.5632782 C24.3787323,14.6602909 24.4012403,14.7561668 24.408377,14.8535584 C24.4257612,15.0938165 24.4363747,15.3342641 24.4543079,15.6510713 C24.4471712,15.7084831 24.4431454,15.8443388 24.4107559,15.9722365 C24.2921771,16.4355102 23.6130941,16.4934904 23.457002,16.0260482 C23.410522,15.8869714 23.4037513,15.7289468 23.4032024,15.5794486 C23.4021044,14.6009843 23.1964215,13.6238463 22.7202765,12.7727112 C22.2298582,11.8975124 21.4817872,11.1617693 20.604341,10.7170645 M21.6799675,15.5392793 C21.4479337,15.5436373 21.5698063,15.5377635 21.6545316,15.5356792 C21.2993443,15.5313212 21.1055558,15.3232744 21.0684085,14.977856 C21.0415087,14.7305872 21.0208306,14.4804763 20.9635541,14.2402182 C20.8511971,13.7665232 20.6085498,13.3278817 20.2237178,13.0376014 C20.0423728,12.9011773 19.8366899,12.8009434 19.6213084,12.7368998 C19.3475525,12.6546664 19.0628171,12.6775932 18.7896101,12.6078653 C18.4931632,12.5330215 18.3292025,12.2840474 18.3756824,11.995662 C18.4181365,11.7338034 18.6644437,11.5291671 18.9413104,11.5496308 C20.670584,11.6788548 21.9070604,12.6046442 22.0832817,14.7135342 C22.0957251,14.861706 22.1105475,15.0191622 22.0785239,15.1610812 C22.0260052,15.3966024 21.8618614,15.515784 21.6977177,15.5351108 C21.7198597,15.5351108 21.7229706,15.5360582 21.6799675,15.5392793 M26.083485,23.7702031 C25.5996543,24.834122 24.8958674,25.7186052 23.8804453,26.2838181 C23.593514,26.4429796 23.2511361,26.4943281 22.9277894,26.5974042 C22.5555838,26.4806857 22.2013114,26.4024313 21.872658,26.2608912 C18.4616886,24.7958474 15.3231942,22.905615 12.836883,20.0081176 C11.4230875,18.3602276 10.3165354,16.5003116 9.38071469,14.5312564 C8.93750826,13.5978878 8.56347278,12.627571 8.18211762,11.663886 C7.83498195,10.7848976 8.34699334,9.87691909 8.88553856,9.214883 C9.39132822,8.5933952 10.0420475,8.11780545 10.7465664,7.76708169 C11.2966401,7.49347548 11.8390281,7.65150012 12.2410614,8.13391107 C13.109541,9.17774531 13.9072028,10.2748229 14.5524323,11.4842609 C14.9498907,12.2285304 14.8411935,13.1376458 14.1213033,13.6441204 C13.946546,13.7672811 13.7866111,13.9116634 13.6237483,14.0507402 C13.4811976,14.1729535 13.3463325,14.2959247 13.2484319,14.4607706 C13.0694658,14.7627985 13.0606822,15.1186382 13.176333,15.4466245 C14.0640268,17.9727451 15.5601688,19.9370634 18.0153713,20.99454 C18.408438,21.1637439 18.8027855,21.360801 19.2555075,21.3064208 C20.0138261,21.2143345 20.2588522,20.3541044 20.7904438,19.9037153 C21.3094088,19.4645053 21.9727545,19.458442 22.5323438,19.8252714 C23.0917501,20.1915323 23.6341382,20.5850781 24.1728664,20.9829819 C24.701896,21.3731171 25.2287297,21.7549152 25.7167692,22.2001885 C26.1861434,22.6284087 26.3479083,23.189832 26.083485,23.7702031 M32.5923245,4.34283549 C29.7087379,0.995327872 24.5534896,0 19.3980583,0 C14.2428099,0 10.1361053,0.271521957 7.77679053,1.17627935 C3.2331012,2.98579414 0,6.69520471 0,13.3000284 C0,17.1903905 0.0270828038,22.909973 0.961256545,25.8760615 C2.27184466,30.0381349 6.72824684,32.8427881 9.8738779,32.8427881 L10.3108626,32.8427881 L11.184466,38 L16.6894119,33.1141206 C22.1943577,33.1141206 29.0098917,32.4808852 32.0680527,29.40471 C35.1262136,26.3285349 36,21.8951289 36,16.557155 C36,11.2189917 35.4759111,7.69053258 32.5923245,4.34283549" id="Fill-1" fill="#7341A0" mask="url(#mask-2)"></path>
    </g>
  </g>
</svg>
