<svg xmlns="http://www.w3.org/2000/svg" width="30" height="30" viewBox="0 0 30 30">
  <g fill="none" fill-rule="evenodd">
    <g transform="translate(1 1)">
        <circle cx="14" cy="14" r="4"/>
        <circle cx="5" cy="5" r="2"/>
        <circle cx="5" cy="23" r="2"/>
        <circle cx="23" cy="5" r="2"/>
        <circle cx="14" cy="2" r="2"/>
        <circle cx="14" cy="26" r="2"/>
        <g transform="rotate(-90 8 8)">
            <circle cx="2" cy="2" r="2"/>
            <circle cx="2" cy="26" r="2"/>
        </g>
        <circle cx="23" cy="23" r="2"/>
    </g>
    <path d="M15 24.563V19M15 10.563V5M24.782 14.782h-5.564M10.782 14.782H5.218M22.72 7.06L18 11.783M12 18l-4.63 4.63M7.17 7.17l4.72 4.72M18.11 17.89l4.63 4.632"/>
  </g>
</svg>
