<svg width="29px" height="29px" viewBox="0 0 29 29" xmlns="http://www.w3.org/2000/svg" xmlns:xlink="http://www.w3.org/1999/xlink">
  <g stroke="none" stroke-width="1" fill="none" fill-rule="evenodd">
    <g transform="translate(-59.000000, -32.000000)" stroke="#FF2E63">
      <g transform="translate(60.000000, 33.000000)">
        <g>
          <circle cx="13.5" cy="13.5" r="13.5"></circle>
          <path d="M13.5,21.5 C17.918278,21.5 21.5,17.918278 21.5,13.5 C21.5,9.081722 17.918278,5.5 13.5,5.5 C9.081722,5.5 5.5,9.081722 5.5,13.5" stroke-linecap="round"></path>
          <polyline stroke-linecap="round" stroke-linejoin="round" points="7.7734375 12.2449947 5.5 14.5799557 3.33105469 12.2449947"></polyline>
          <path d="M15,10.5676876 C15.5522847,10.5676876 16,11.0154029 16,11.5676876 L16,13.5938717 L16,16.931213 L14.104,15.5676876 L12,15.5676876 C11.4477153,15.5676876 11,15.1199724 11,14.5676876 L11,11.5676876 C11,11.0154029 11.4477153,10.5676876 12,10.5676876 L15,10.5676876 Z" stroke-linejoin="round"></path>
        </g>
      </g>
    </g>
  </g>
</svg>
