<svg xmlns="http://www.w3.org/2000/svg" width="54" height="54" viewBox="0 0 54 54">
  <g fill="none" fill-rule="evenodd">
    <circle cx="27" cy="27" r="27" fill="#EFEFEF"/>
    <g fill="#353535" transform="translate(16 11)">
      <path d="M5.257 14A7.598 7.598 0 0 0 11 16.614 7.598 7.598 0 0 0 16.743 14 10.993 10.993 0 0 1 22 23.383v5.802a18.913 18.913 0 0 1-11 3.506c-4.1 0-7.896-1.298-11-3.506v-5.802c0-3.97 2.103-7.449 5.257-9.383z"/>
      <rect width="12" height="15" x="5" rx="6"/>
    </g>
    <path fill="#EFEFEF" d="M10.914 15.376l2.122-2.121L41.32 41.539l-2.121 2.121z"/>
    <path fill="#353535" d="M10.298 17.919l2.121-2.122L41.411 44.79l-2.122 2.12z"/>
  </g>
</svg>
