<svg xmlns="http://www.w3.org/2000/svg" width="31" height="13" viewBox="0 0 31 13">
  <g fill="transparent" fill-rule="evenodd" stroke="#FF2E63" stroke-linejoin="round">
    <path d="M5 7.89l-2.939 2.155 1.141-3.46-2.957-2.13 3.644.015L5 1l1.111 3.47 3.644-.015-2.957 2.13 1.14 3.46zM26 7.89l-2.939 2.155 1.141-3.46-2.957-2.13 3.644.015L26 1l1.111 3.47 3.644-.015-2.957 2.13 1.14 3.46z"/>
    <path d="M15.5 8.958l-3.82 2.8 1.483-4.499-3.845-2.768 4.737.02L15.5 0l1.445 4.512 4.737-.02-3.845 2.767 1.484 4.5z"/>
  </g>
</svg>
