<svg xmlns="http://www.w3.org/2000/svg" xmlns:xlink="http://www.w3.org/1999/xlink" x="0px" y="0px" viewBox="0 0 105 105" xml:space="preserve">
	<g>
		<path  d="M52.7,0C23.9,0,0.5,23.4,0.5,52.3s23.4,52.3,52.3,52.3S105,81.1,105,52.3S81.6,0,52.7,0z M84,81.7
			c-25.3,3.4-31.5-20.6-31.5-20.6s-4,21.7-27.3,20.9V23.3h39.2c11,0.6,19.7,9.7,19.7,20.8c0,7-3.5,13.1-8.8,17
			C78.4,68.3,81.1,74.6,84,81.7z"/>
		<path d="M56.9,44c0-0.9-0.1-1.8-0.3-2.6L56.3,40c0,0,0,0,0-0.1c-0.7-2-1.5-3.9-2.7-5.7l-0.7-1.1
			C52.8,33,52.7,33,52.5,33s-0.3,0.1-0.4,0.2l-0.7,1.1c-1.1,1.8-2,3.7-2.7,5.7c0,0,0,0,0,0.1l-0.3,1.4c-0.2,0.9-0.3,1.8-0.3,2.6v11.2
			L44.7,58v4.6c0,0,3.8-2,8-2c4.2,0,8,2,8,2V58l-3.7-2.9V44z"/>
	</g>
</svg>
