<svg xmlns="http://www.w3.org/2000/svg" width="36" height="32" viewBox="0 0 36 32">
    <g fill="none" fill-rule="evenodd" transform="translate(-2 -3)">
        <path fill="#FFD837" d="M22.605 4.558l14.83 25.954A3 3 0 0 1 34.83 35H5.17a3 3 0 0 1-2.605-4.488l14.83-25.954a3 3 0 0 1 5.21 0z"/>
        <path fill="#FFF" d="M20 12a1.852 1.852 0 0 1 1.847 1.994l-.77 10.009a1.08 1.08 0 0 1-2.154 0l-.77-10.009A1.852 1.852 0 0 1 20 12z"/>
        <circle cx="20" cy="29" r="2" fill="#FFF"/>
    </g>
</svg>
